<?xml version="1.0" standalone="no"?>
<!DOCTYPE svg PUBLIC "-//W3C//DTD SVG 20010904//EN"
 "http://www.w3.org/TR/2001/REC-SVG-20010904/DTD/svg10.dtd">
<svg version="1.0" xmlns="http://www.w3.org/2000/svg"
 width="3224.000000pt" height="3224.000000pt" viewBox="0 0 3224.000000 3224.000000"
 preserveAspectRatio="xMidYMid meet">
<metadata>
Created by potrace 1.11, written by Peter Selinger 2001-2013
</metadata>
<g transform="translate(0.000000,3224.000000) scale(0.100000,-0.100000)"
fill="#000000" stroke="none">
<path d="M15589 31996 c-2 -2 -94 -6 -204 -10 -110 -4 -225 -9 -255 -11 -30
-2 -98 -6 -150 -10 -152 -10 -343 -24 -400 -30 -19 -2 -64 -6 -100 -10 -36 -3
-81 -8 -100 -10 -19 -2 -64 -7 -100 -10 -36 -3 -76 -8 -90 -10 -14 -2 -50 -7
-80 -10 -101 -11 -324 -40 -365 -49 -11 -2 -46 -7 -79 -10 -84 -10 -487 -80
-698 -121 -16 -3 -38 -7 -50 -9 -84 -16 -240 -49 -338 -71 -63 -15 -126 -29
-140 -32 -43 -8 -434 -103 -465 -114 -29 -9 -271 -75 -307 -84 -100 -23 -849
-263 -998 -320 -25 -9 -67 -25 -95 -35 -328 -121 -911 -356 -1014 -410 -9 -4
-33 -15 -53 -24 -35 -15 -101 -46 -283 -131 -97 -45 -536 -264 -586 -293 -19
-11 -80 -43 -135 -72 -54 -29 -112 -60 -129 -70 -32 -18 -94 -53 -185 -103
-30 -17 -67 -38 -82 -49 -14 -10 -29 -18 -32 -18 -6 0 -323 -191 -471 -283
-213 -133 -535 -348 -750 -501 -93 -67 -179 -128 -191 -136 -12 -8 -41 -30
-65 -48 -24 -18 -55 -41 -67 -50 -27 -19 -129 -97 -152 -115 -8 -7 -87 -68
-175 -137 -88 -68 -165 -129 -171 -135 -6 -5 -30 -26 -54 -45 -97 -78 -251
-208 -316 -265 -12 -11 -46 -40 -75 -65 -29 -25 -60 -52 -69 -60 -9 -8 -51
-46 -95 -85 -43 -38 -91 -81 -105 -95 -15 -14 -82 -77 -151 -140 -130 -121
-561 -549 -689 -686 -117 -125 -190 -204 -255 -278 -33 -37 -74 -82 -90 -100
-45 -47 -274 -314 -361 -421 -59 -73 -221 -274 -237 -295 -7 -8 -35 -44 -63
-80 -61 -78 -310 -410 -344 -460 -13 -19 -27 -37 -30 -40 -3 -3 -25 -34 -48
-68 -24 -35 -75 -109 -114 -165 -102 -148 -283 -423 -373 -567 -92 -146 -275
-450 -275 -455 0 -2 -27 -49 -60 -105 -33 -56 -60 -103 -60 -105 0 -2 -19 -36
-42 -77 -232 -408 -564 -1092 -760 -1568 -32 -80 -63 -154 -68 -165 -66 -143
-397 -1063 -414 -1150 -2 -5 -19 -64 -40 -130 -65 -213 -87 -284 -91 -302 -3
-10 -21 -76 -41 -148 -20 -71 -49 -184 -66 -250 -16 -66 -31 -127 -33 -135
-51 -194 -136 -571 -160 -710 -3 -19 -11 -55 -16 -80 -6 -25 -12 -60 -15 -77
-2 -18 -8 -53 -14 -78 -6 -25 -13 -62 -16 -83 -3 -20 -7 -48 -10 -62 -3 -14
-6 -34 -8 -45 -2 -11 -6 -33 -9 -50 -6 -26 -10 -56 -22 -140 -2 -11 -6 -33 -9
-50 -2 -16 -7 -50 -11 -75 -3 -25 -8 -56 -10 -70 -6 -33 -13 -83 -20 -145 -3
-27 -8 -61 -10 -75 -6 -37 -20 -150 -31 -245 -3 -33 -8 -69 -10 -79 -2 -10 -6
-51 -9 -90 -3 -39 -8 -82 -10 -96 -2 -14 -7 -61 -10 -105 -4 -44 -9 -102 -11
-130 -6 -66 -11 -140 -19 -250 -3 -49 -8 -110 -10 -135 -3 -42 -13 -270 -21
-460 -4 -126 -4 -864 1 -1020 7 -230 26 -577 40 -730 2 -25 7 -85 10 -134 4
-48 9 -98 11 -110 10 -48 5 -135 -11 -191 -21 -75 -72 -282 -78 -315 -3 -14
-16 -83 -30 -155 -14 -71 -28 -148 -31 -170 -6 -48 -16 -121 -22 -155 -2 -14
-7 -52 -10 -85 -3 -33 -7 -73 -9 -90 -26 -221 -26 -885 0 -1045 2 -14 6 -54 9
-90 7 -69 9 -91 26 -210 11 -77 18 -117 46 -255 8 -44 18 -91 20 -105 3 -14
17 -72 30 -130 14 -58 27 -112 29 -120 32 -138 174 -559 230 -685 7 -16 32
-75 56 -130 57 -134 220 -453 304 -595 57 -97 201 -321 227 -355 5 -5 49 -66
100 -135 82 -113 236 -303 328 -404 86 -97 384 -390 475 -469 l100 -86 109
-198 c265 -479 482 -829 837 -1353 24 -36 48 -69 52 -75 4 -5 58 -80 119 -165
238 -334 610 -809 817 -1046 20 -22 61 -69 91 -104 30 -35 64 -74 75 -86 24
-26 142 -159 168 -187 69 -80 242 -262 412 -435 110 -113 199 -210 199 -217
-1 -7 -32 -59 -70 -116 -263 -398 -462 -811 -558 -1154 -24 -88 -30 -114 -42
-184 -3 -18 -8 -43 -10 -55 -17 -87 -22 -272 -11 -396 34 -377 238 -713 557
-919 167 -108 412 -198 620 -227 19 -2 44 -6 55 -9 150 -31 711 -25 940 10 17
2 53 7 80 10 46 5 261 37 345 51 19 3 114 21 210 40 96 20 186 37 200 40 39 8
235 53 350 81 58 14 112 26 120 28 8 2 35 8 60 15 25 7 52 14 60 16 27 6 341
91 474 128 70 20 131 36 135 36 4 0 74 -36 156 -81 273 -146 612 -312 1000
-489 144 -66 421 -182 670 -280 11 -4 36 -15 55 -23 19 -8 85 -33 145 -55 61
-22 155 -57 210 -77 533 -197 1288 -417 1885 -550 201 -45 164 -37 350 -74 85
-17 178 -35 205 -41 28 -6 64 -13 80 -15 17 -3 107 -18 200 -34 94 -17 188
-32 210 -35 41 -5 154 -22 215 -32 19 -3 51 -7 70 -10 19 -2 49 -6 65 -8 17
-3 53 -7 80 -11 28 -3 64 -8 82 -10 17 -3 73 -9 125 -15 51 -5 116 -13 143
-16 28 -3 68 -7 90 -9 22 -2 63 -6 90 -9 28 -3 86 -8 130 -11 44 -3 103 -8
130 -10 190 -16 340 -25 730 -41 153 -6 837 -6 1010 0 145 6 358 15 440 21 33
2 105 7 160 10 55 3 120 8 145 10 25 2 79 7 120 10 41 3 93 8 115 10 22 2 67
6 100 9 33 3 78 8 100 11 22 3 63 7 90 10 63 7 130 14 175 20 98 12 208 27
230 30 14 2 45 7 70 10 114 16 366 55 470 74 63 11 129 23 146 25 80 14 353
68 384 76 19 5 49 11 65 14 52 8 386 84 470 106 44 12 91 24 105 26 14 3 50
12 80 20 30 8 66 17 80 20 14 3 45 11 70 19 25 7 135 39 245 69 189 53 244 66
340 80 50 8 82 14 103 20 9 3 33 7 52 10 58 9 93 16 135 28 22 5 47 11 55 13
51 11 245 60 295 75 317 97 379 118 565 188 223 85 433 178 655 289 167 84
251 129 430 233 133 77 327 200 480 305 66 45 192 121 280 170 406 224 1026
615 1386 873 222 159 289 208 419 306 134 101 468 363 480 376 3 3 30 25 60
50 30 25 60 49 66 55 6 5 32 28 59 50 47 39 125 105 135 115 3 3 55 48 115
100 61 52 115 100 120 105 6 6 60 56 120 110 415 375 993 971 1346 1389 13 16
29 34 34 40 27 29 279 334 330 400 17 21 35 44 40 50 6 6 37 47 70 91 33 44
65 85 71 90 18 17 275 367 402 548 58 83 164 238 177 258 5 9 35 54 66 100
144 216 377 589 466 747 13 23 53 93 89 154 35 61 64 114 64 118 0 4 51 46
114 93 692 520 1261 1203 1644 1973 65 131 130 275 172 379 4 11 15 36 23 55
116 271 248 744 312 1115 3 17 7 41 9 55 3 14 10 61 16 105 6 44 13 96 16 115
3 19 7 60 10 90 2 30 7 78 9 105 24 257 24 806 0 947 -2 13 -6 52 -9 88 -6 86
-32 277 -50 380 -3 14 -10 54 -16 90 -6 36 -20 101 -30 145 -10 45 -21 92 -24
105 -26 136 -125 460 -203 670 -22 60 -23 74 -18 185 4 66 8 136 10 155 19
187 27 1252 11 1565 -4 88 -9 187 -11 220 -5 105 -15 259 -20 300 -2 22 -7 76
-10 120 -3 44 -8 98 -10 120 -4 37 -33 329 -40 400 -2 17 -6 50 -9 75 -4 25
-9 62 -11 83 -5 35 -8 62 -21 162 -3 22 -9 65 -14 95 -5 30 -11 75 -14 100 -4
25 -8 54 -10 65 -2 11 -7 40 -10 65 -3 25 -8 55 -10 66 -2 12 -7 39 -10 60 -4
22 -13 75 -21 119 -8 44 -17 98 -20 120 -4 22 -19 103 -35 180 -15 77 -31 158
-34 180 -4 22 -11 58 -17 80 -6 22 -13 49 -14 60 -2 11 -6 31 -9 45 -50 228
-147 623 -201 815 -20 72 -39 139 -42 150 -11 39 -92 311 -123 410 -102 330
-334 977 -419 1170 -5 11 -37 88 -71 170 -34 83 -68 164 -75 180 -8 17 -42 93
-75 170 -84 191 -101 227 -271 570 -202 409 -358 698 -561 1038 -50 84 -99
167 -109 185 -18 30 -90 146 -174 277 -17 28 -67 104 -111 170 -43 66 -83 127
-89 135 -5 9 -19 30 -30 48 -11 17 -23 32 -27 32 -5 0 -8 5 -8 10 0 12 -355
517 -380 540 -3 3 -39 50 -79 105 -65 87 -303 392 -352 450 -10 11 -54 65
-100 120 -46 55 -86 102 -89 105 -3 3 -27 32 -54 65 -28 33 -68 80 -90 105
-23 25 -70 79 -106 120 -36 41 -74 83 -85 95 -11 11 -42 45 -69 75 -248 274
-799 828 -976 980 -14 12 -43 38 -65 59 -60 56 -245 220 -305 271 -29 25 -58
50 -64 55 -6 6 -51 44 -101 85 -49 41 -92 78 -95 81 -15 17 -383 307 -560 441
-584 441 -1268 887 -1855 1208 -33 18 -80 44 -105 58 -25 14 -65 36 -90 50
-81 45 -643 327 -755 379 -254 119 -481 219 -705 310 -74 30 -148 61 -165 68
-16 7 -109 43 -205 79 -96 36 -197 75 -225 85 -249 97 -848 288 -1235 395
-112 31 -637 163 -677 171 -15 2 -59 12 -98 20 -93 20 -442 92 -481 99 -17 3
-66 13 -110 21 -43 8 -99 18 -124 21 -25 3 -61 9 -80 14 -19 5 -55 11 -80 14
-25 3 -54 8 -65 10 -11 2 -41 6 -66 10 -25 4 -57 8 -70 10 -13 3 -46 7 -72 11
-27 4 -56 8 -65 10 -10 1 -42 6 -73 9 -31 4 -65 8 -75 10 -11 2 -46 7 -79 10
-33 4 -67 9 -75 11 -8 2 -51 7 -95 10 -44 4 -82 8 -85 10 -3 1 -43 6 -90 10
-126 11 -137 12 -320 30 -25 2 -88 7 -140 10 -52 4 -115 8 -140 10 -25 2 -103
7 -175 11 -71 3 -152 8 -180 10 -63 5 -1132 14 -1136 10z m-9359 -28368 c14
-13 60 -50 103 -82 88 -66 87 -70 -13 -81 -36 -4 -67 -8 -70 -10 -3 -1 -32 -6
-65 -9 -33 -4 -72 -9 -87 -12 -16 -2 -28 0 -28 5 0 10 94 177 112 199 14 17
19 15 48 -10z"/>
</g>
</svg>
